# xmcd CD database file
#
# Track frame offsets:
#	150
#	15213
#	25531
#	37328
#	51482
#	63908
#	76816
#	88629
#	102697
#	110366
#	120946
#	133280
#	145999
#	158652
#	170852
#	183824
#	197482
#
# Disc length: 2803 seconds
#
# Revision: 0
# Processed by: cddbd v1.5.2PL0 Copyright (c) Steve Scherf et al.
# Submitted via: CDex 1.70beta2
#
DISCID=df0af111
DTITLE=Various Artist - Country Roots - CD 7
DYEAR=2007
DGENRE=Country Classics
TTITLE0=Jimmie Rodgers - A Drunkhard's Child
TTITLE1=Bill Haley And His Comets - Teenager's Mother
TTITLE2=Roy Acuff - Just To Ease My Worried Mind
TTITLE3=The Carter Family - On My Way To Canaan's Land
TTITLE4=Gene Autry - Goodbye, Little Darlin' Goodbye
TTITLE5=Roy Acuff - Black Mountain Rag
TTITLE6=Hank Williams - Long Gone Lonesome Blues
TTITLE7=The Carter Family - Kitty Waltz
TTITLE8=Gene Autry - Ride Tenderfoot Ride
TTITLE9=Gene Autry - Buon Natale
TTITLE10=Roy Acuff - The Precious Jewel
TTITLE11=Red Foley - Someone To Care
TTITLE12=Red Foley - Chattanoga Shoe Shine Boy
TTITLE13=Bob Wills - Brain Cloudy Blues
TTITLE14=Hank Williams - Pan American
TTITLE15=The Carter Family - God Gave Noah The Rainbow Sign
TTITLE16=Bob Wills - What's The Matter With The Mill
EXTD=YEAR: 2007
EXTT0=
EXTT1=
EXTT2=
EXTT3=
EXTT4=
EXTT5=
EXTT6=
EXTT7=
EXTT8=
EXTT9=
EXTT10=
EXTT11=
EXTT12=
EXTT13=
EXTT14=
EXTT15=
EXTT16=
PLAYORDER=
